<svg width="156" height="29" viewBox="0 0 156 29" fill="none" xmlns="http://www.w3.org/2000/svg">
<path d="M0 17.4542V17.3721C0 11.0927 5.05355 6.00221 11.86 6.00221C18.6255 6.00221 23.638 11.0147 23.638 17.2916V17.3737C23.638 23.6498 18.5844 28.7444 11.7779 28.7444C5.0125 28.7453 0 23.7303 0 17.4542ZM17.5245 17.4542V17.3721C17.5549 16.5957 17.4292 15.8212 17.1548 15.0943C16.8803 14.3674 16.4627 13.703 15.9267 13.1405C15.3907 12.578 14.7473 12.1289 14.0345 11.8197C13.3217 11.5106 12.554 11.3477 11.7771 11.3407C8.23183 11.3407 6.11188 14.0715 6.11188 17.2908V17.3729C6.08141 18.1493 6.20712 18.9239 6.48157 19.6507C6.75602 20.3776 7.17361 21.042 7.70961 21.6045C8.24559 22.167 8.88906 22.6161 9.60187 22.9253C10.3147 23.2345 11.0823 23.3973 11.8592 23.4043C15.4053 23.4084 17.5245 20.6743 17.5245 17.4542Z" fill="#EB1537"/>
<path d="M26.345 2.92082C26.3914 2.13078 26.7379 1.38834 27.3137 0.845378C27.8895 0.302419 28.651 0 29.4424 0C30.2338 0 30.9953 0.302419 31.5711 0.845378C32.1468 1.38834 32.4934 2.13078 32.5398 2.92082V25.5415C32.4934 26.3316 32.1468 27.074 31.5711 27.617C30.9953 28.16 30.2338 28.4624 29.4424 28.4624C28.651 28.4624 27.8895 28.16 27.3137 27.617C26.7379 27.074 26.3914 26.3316 26.345 25.5415V2.92082Z" fill="#EB1537"/>
<path d="M35.2592 17.4542V17.3721C35.2381 15.8662 35.5205 14.3715 36.0896 12.9771C36.6587 11.5827 37.5028 10.3173 38.5716 9.25617C39.6403 8.19508 40.9119 7.3601 42.3103 6.80105C43.7087 6.24199 45.2054 5.9703 46.7111 6.0022C49.4142 5.86596 52.0717 6.7372 54.1695 8.4473C54.4782 8.70704 54.7258 9.03156 54.8948 9.39782C55.0638 9.76407 55.15 10.1631 55.1474 10.5664C55.1458 10.9333 55.0717 11.2963 54.9293 11.6345C54.7869 11.9726 54.579 12.2793 54.3177 12.5368C54.0563 12.7943 53.7467 12.9976 53.4064 13.1351C53.0662 13.2725 52.7022 13.3413 52.3353 13.3375C51.6862 13.3389 51.0551 13.1236 50.5421 12.7258C49.4598 11.8147 48.0864 11.3226 46.6717 11.339C43.5747 11.339 41.3735 14.0698 41.3735 17.2892V17.3713C41.3735 20.7129 43.5337 23.4027 46.9164 23.4027C48.4112 23.4013 49.8565 22.8665 50.9921 21.8944C51.4757 21.5342 52.06 21.3346 52.6629 21.3238C53.196 21.3273 53.7155 21.493 54.1522 21.7988C54.589 22.1045 54.9224 22.5359 55.1082 23.0356C55.2939 23.5354 55.3233 24.0798 55.1923 24.5966C55.0613 25.1134 54.7762 25.5781 54.3748 25.9291C53.3326 26.8841 52.1121 27.6241 50.7833 28.1067C49.4546 28.5892 48.0437 28.8048 46.6315 28.7411C45.1372 28.7705 43.6522 28.4993 42.2648 27.9435C40.8774 27.3878 39.6158 26.5589 38.555 25.5061C37.4942 24.4532 36.6558 23.1979 36.0896 21.8147C35.5235 20.4315 35.241 18.9486 35.2592 17.4542Z" fill="#EB1537"/>
<path d="M58.3446 2.92082C58.391 2.13078 58.7375 1.38834 59.3133 0.845378C59.8891 0.302419 60.6506 0 61.442 0C62.2334 0 62.9949 0.302419 63.5707 0.845378C64.1464 1.38834 64.493 2.13078 64.5394 2.92082V10.5894C65.9655 8.86521 67.7998 7.29209 70.9378 7.29209C75.6244 7.29209 78.3552 10.206 78.3552 14.9229V25.5415C78.3088 26.3316 77.9622 27.074 77.3864 27.617C76.8107 28.16 76.0492 28.4624 75.2578 28.4624C74.4664 28.4624 73.7048 28.16 73.1291 27.617C72.5533 27.074 72.2067 26.3316 72.1604 25.5415V16.7637C72.1604 14.0025 70.7744 12.5838 68.4106 12.5838C66.0468 12.5838 64.5386 14.0025 64.5386 16.7637V25.5415C64.4922 26.3316 64.1456 27.074 63.5698 27.617C62.9941 28.16 62.2326 28.4624 61.4412 28.4624C60.6498 28.4624 59.8882 28.16 59.3125 27.617C58.7367 27.074 58.3901 26.3316 58.3438 25.5415L58.3446 2.92082Z" fill="#EB1537"/>
<path d="M81.186 21.9782V21.8961C81.186 17.1274 84.8134 14.927 89.9893 14.927C91.807 14.911 93.6134 15.2145 95.3261 15.8236V15.4566C95.3261 12.8892 93.7366 11.4622 90.6396 11.4622C89.1903 11.4466 87.7472 11.6528 86.3603 12.0739C86.0733 12.1806 85.7699 12.2362 85.4637 12.2381C85.1283 12.2441 84.795 12.1831 84.4835 12.0587C84.1719 11.9344 83.8883 11.7491 83.6492 11.5137C83.4101 11.2784 83.2204 10.9978 83.0911 10.6882C82.9618 10.3786 82.8956 10.0464 82.8963 9.71089C82.8966 9.18755 83.0568 8.67678 83.3554 8.24699C83.654 7.8172 84.0768 7.48889 84.5671 7.30603C86.7985 6.49384 89.1623 6.10676 91.5362 6.16478C94.9189 6.16478 97.3656 7.06136 98.9125 8.60986C100.543 10.2405 101.276 12.6445 101.276 15.5789V25.5235C101.276 25.9173 101.198 26.3072 101.046 26.6706C100.894 27.034 100.672 27.3636 100.392 27.6403C100.111 27.917 99.7791 28.1354 99.4138 28.2826C99.0485 28.4299 98.6576 28.5031 98.2638 28.4981C97.8997 28.5256 97.5338 28.481 97.187 28.3667C96.8402 28.2525 96.5193 28.0709 96.2429 27.8324C95.9664 27.5938 95.7398 27.303 95.576 26.9767C95.4122 26.6504 95.3145 26.2949 95.2884 25.9307V25.8896C94.4601 26.8094 93.4387 27.5348 92.2974 28.0139C91.1561 28.4929 89.923 28.7138 88.6863 28.6607C84.5688 28.6623 81.186 26.2985 81.186 21.9782ZM95.4099 20.552V19.4518C94.1647 18.9031 92.8172 18.6252 91.4565 18.6365C88.8078 18.6365 87.1772 19.6965 87.1772 21.6522V21.7343C87.1772 23.4051 88.5632 24.383 90.5599 24.383C93.4533 24.383 95.4099 22.7935 95.4099 20.552Z" fill="#EB1537"/>
<path d="M107.622 21.4897C108.085 21.4741 108.546 21.5525 108.978 21.72C109.41 21.8876 109.803 22.1408 110.135 22.4645C110.466 22.7882 110.728 23.1756 110.906 23.6034C111.083 24.0312 111.172 24.4905 111.168 24.9537V25.0358C111.143 25.96 110.759 26.8381 110.097 27.4832C109.434 28.1283 108.546 28.4892 107.622 28.4892C106.697 28.4892 105.809 28.1283 105.147 27.4832C104.485 26.8381 104.1 25.96 104.076 25.0358V24.9537C104.071 24.4905 104.16 24.0311 104.338 23.6032C104.515 23.1754 104.778 22.7879 105.109 22.4642C105.441 22.1405 105.834 21.8873 106.266 21.7198C106.698 21.5523 107.159 21.474 107.622 21.4897Z" fill="#EB1537"/>
<path d="M133.992 25.4019C133.992 26.2234 133.665 27.0113 133.085 27.5921C132.504 28.173 131.716 28.4993 130.894 28.4993C130.073 28.4993 129.285 28.173 128.704 27.5921C128.123 27.0113 127.797 26.2234 127.797 25.4019V25.1556C126.371 26.9899 124.537 28.6607 121.399 28.6607C116.712 28.6607 113.981 25.5637 113.981 20.5504V9.26096C113.981 8.43947 114.308 7.65163 114.888 7.07075C115.469 6.48988 116.257 6.16356 117.079 6.16356C117.9 6.16356 118.688 6.48988 119.269 7.07075C119.85 7.65163 120.176 8.43947 120.176 9.26096V18.5963C120.176 21.5307 121.562 23.0381 123.926 23.0381C126.29 23.0381 127.798 21.5299 127.798 18.5963V9.26259C127.798 8.4411 128.124 7.65328 128.705 7.0724C129.286 6.49153 130.074 6.16519 130.895 6.16519C131.717 6.16519 132.505 6.49153 133.085 7.0724C133.666 7.65328 133.993 8.4411 133.993 9.26259L133.992 25.4019Z" fill="#EB1537"/>
<path d="M136.518 25.7689V25.6466C136.524 25.0748 136.651 24.5106 136.889 23.991C137.128 23.4713 137.474 23.0079 137.904 22.6309L148.052 11.4236H139.411C139.082 11.4265 138.756 11.3645 138.45 11.2411C138.145 11.1177 137.867 10.9353 137.632 10.7044C137.398 10.4735 137.211 10.1986 137.082 9.89543C136.954 9.59224 136.887 9.2667 136.884 8.93745C136.888 8.2682 137.155 7.62728 137.628 7.15404C138.101 6.6808 138.742 6.4135 139.411 6.41026H152.983C154.735 6.41026 155.998 7.4292 155.998 8.89641V9.01873C155.992 9.5906 155.866 10.1548 155.627 10.6744C155.388 11.1941 155.042 11.6575 154.612 12.0344L144.425 23.2418H153.473C154.142 23.245 154.783 23.5123 155.256 23.9855C155.729 24.4588 155.997 25.0997 156 25.7689C155.997 26.0982 155.93 26.4237 155.802 26.7269C155.673 27.0301 155.486 27.305 155.252 27.5359C155.017 27.7668 154.739 27.9492 154.434 28.0726C154.129 28.196 153.802 28.258 153.473 28.2551H139.534C137.782 28.2551 136.518 27.2362 136.518 25.7689Z" fill="#EB1537"/>
</svg>
