<?xml version="1.0" encoding="utf-8"?>
<svg width="294px" height="93px" viewbox="0 0 294 93" version="1.1" xmlns:xlink="http://www.w3.org/1999/xlink" xmlns="http://www.w3.org/2000/svg">
  <defs>
    <rect width="294" height="93" id="artboard_1" />
    <clipPath id="clip_1">
      <use xlink:href="#artboard_1" clip-rule="evenodd" />
    </clipPath>
  </defs>
  <g id="Artboard" clip-path="url(#clip_1)">
    <path d="M0 30.5C0 13.6553 13.6553 0 30.5 0C47.3447 0 61 13.6553 61 30.5C61 47.3447 47.3447 61 30.5 61C13.6553 61 0 47.3447 0 30.5Z" transform="translate(8 15.399994)" id="Ellipse" fill="#0F52C3" fill-rule="evenodd" stroke="none" />
    <path d="M119.232 11.9756C121.674 11.9756 123.854 12.6054 125.772 13.8649C127.691 15.1245 129.183 16.8976 130.249 19.1842C131.314 21.4708 131.847 24.0868 131.847 27.0322C131.847 29.9777 131.314 32.5646 130.249 34.7931C129.183 37.0216 127.7 38.7365 125.801 39.9379C123.902 41.1394 121.713 41.7401 119.232 41.7401C117.411 41.7401 115.735 41.3719 114.204 40.6355C112.673 39.8992 111.481 38.9109 110.629 37.6707L110.629 47.5535C110.629 48.9099 110.163 49.9951 109.233 50.8089C108.303 51.6228 107.082 52.0298 105.571 52.0298C103.982 52.0298 102.703 51.5938 101.734 50.7218C100.765 49.8497 100.281 48.7355 100.281 47.3791L100.281 16.8588C100.281 15.4249 100.736 14.2719 101.647 13.3999C102.558 12.5279 103.788 12.0919 105.338 12.0919C106.811 12.0919 108.003 12.4794 108.914 13.2545C109.824 14.0296 110.338 15.0567 110.454 16.3356C111.268 14.9792 112.46 13.9134 114.029 13.1383C115.599 12.3631 117.333 11.9756 119.232 11.9756L119.232 11.9756ZM116.093 34.0083C117.876 34.0083 119.242 33.4075 120.192 32.2061C121.141 31.0047 121.616 29.28 121.616 27.0322C121.616 24.6681 121.131 22.8563 120.162 21.5967C119.194 20.3371 117.818 19.7074 116.035 19.7074C114.252 19.7074 112.876 20.3274 111.908 21.5676C110.939 22.8078 110.454 24.5906 110.454 26.9159C110.454 29.2025 110.939 30.9562 111.908 32.1771C112.876 33.3979 114.272 34.0083 116.093 34.0083L116.093 34.0083ZM79.8177 41.7401C76.6785 41.7401 73.9171 41.1297 71.5336 39.9089C69.1501 38.688 67.3092 36.9537 66.0109 34.7059C64.7126 32.4581 64.0634 29.8227 64.0634 26.7997C64.0634 23.7767 64.7126 21.151 66.0109 18.9226C67.3092 16.6941 69.1404 14.9792 71.5045 13.7777C73.8686 12.5763 76.6397 11.9756 79.8177 11.9756C82.9956 11.9756 85.7667 12.5763 88.1308 13.7777C90.4949 14.9792 92.3261 16.6941 93.6244 18.9226C94.9228 21.151 95.5719 23.7767 95.5719 26.7997C95.5719 29.8227 94.9228 32.4581 93.6244 34.7059C92.3261 36.9537 90.4949 38.688 88.1308 39.9089C85.7667 41.1297 82.9956 41.7401 79.8177 41.7401L79.8177 41.7401ZM79.8177 34.0082C83.4995 34.0082 85.3404 31.6054 85.3404 26.7997C85.3404 21.9939 83.4995 19.5911 79.8177 19.5911C76.1359 19.5911 74.295 21.9939 74.295 26.7997C74.295 31.6054 76.1359 34.0082 79.8177 34.0082L79.8177 34.0082ZM49.7044 11.9756C53.0374 11.9756 55.5177 12.9929 57.1455 15.0276C58.7732 17.0623 59.5871 20.153 59.5871 24.2999L59.5871 36.8568C59.5871 38.3295 59.122 39.4922 58.1919 40.3448C57.2617 41.1975 56.0022 41.6238 54.4132 41.6238C52.8242 41.6238 51.5646 41.1975 50.6345 40.3448C49.7044 39.4922 49.2393 38.3295 49.2393 36.8568L49.2393 24.0674C49.2393 21.277 48.0379 19.8817 45.635 19.8817C44.0848 19.8817 42.8543 20.3759 41.9435 21.3642C41.0327 22.3524 40.5774 23.6798 40.5774 25.3463L40.5774 36.8568C40.5774 38.3295 40.1123 39.4922 39.1821 40.3448C38.252 41.1975 36.9924 41.6238 35.4035 41.6238C33.8145 41.6238 32.5549 41.1975 31.6248 40.3448C30.6946 39.4922 30.2296 38.3295 30.2296 36.8568L30.2296 4.6507C30.2296 3.29425 30.714 2.18002 31.6829 1.30801C32.6518 0.436007 33.9307 4.62006e-06 35.5197 0C37.0312 0 38.252 0.406936 39.1821 1.22081C40.1123 2.03468 40.5774 3.11985 40.5774 4.4763L40.5774 16.1031C41.6238 14.7466 42.9221 13.7196 44.4723 13.022C46.0226 12.3244 47.7666 11.9756 49.7044 11.9756L49.7044 11.9756ZM13.022 41.7401C10.4253 41.7401 8.23562 41.5463 6.45285 41.1587C4.67008 40.7712 3.10047 40.1511 1.74402 39.2985C1.20143 39.0272 0.775116 38.5621 0.465073 37.9032C0.155024 37.2444 0 36.508 0 35.6942C0 34.6478 0.280979 33.7854 0.842938 33.1072C1.4049 32.429 2.11219 32.0899 2.96482 32.0899C3.54616 32.0899 4.08874 32.1577 4.59257 32.2933C5.0964 32.429 5.71649 32.6518 6.45285 32.9619C7.69303 33.3882 8.78788 33.7176 9.7374 33.9502C10.6869 34.1827 11.898 34.299 13.3708 34.299C14.4172 34.299 15.2407 34.1536 15.8415 33.863C16.4422 33.5723 16.7425 33.1557 16.7425 32.6131C16.7425 32.1868 16.5972 31.8573 16.3065 31.6248C16.0159 31.3923 15.4636 31.1694 14.6497 30.9563C13.8358 30.7431 12.46 30.4427 10.5222 30.0552C7.07294 29.3963 4.58288 28.3984 3.05202 27.0613C1.52116 25.7242 0.755736 23.8349 0.755736 21.3933C0.755736 19.6105 1.30801 18.0021 2.41255 16.5682C3.51709 15.1342 5.03826 14.0103 6.97605 13.1964C8.91384 12.3825 11.0842 11.9756 13.487 11.9756C15.231 11.9756 16.9266 12.1887 18.5737 12.6151C20.2209 13.0414 21.6839 13.6421 22.9628 14.4172C24.1643 15.1148 24.765 16.2387 24.765 17.789C24.765 18.8741 24.4743 19.7849 23.893 20.5212C23.3116 21.2576 22.5946 21.6258 21.742 21.6258C20.7344 21.6258 19.5329 21.2964 18.1377 20.6375C17.2076 20.2112 16.384 19.8915 15.667 19.6783C14.9501 19.4652 14.1071 19.3586 13.1382 19.3586C12.1693 19.3586 11.4136 19.5039 10.871 19.7946C10.3284 20.0852 10.0571 20.5019 10.0571 21.0445C10.0571 21.6646 10.435 22.149 11.1907 22.4978C11.9465 22.8466 13.4483 23.2342 15.6961 23.6605C19.4554 24.3193 22.1102 25.3173 23.6604 26.6544C25.2107 27.9914 25.9858 29.9195 25.9858 32.4387C25.9858 35.2678 24.8134 37.5254 22.4687 39.2113C20.124 40.8971 16.9751 41.7401 13.022 41.7401L13.022 41.7401Z" transform="translate(158.15271 24.254013)" id="Myshop" fill="#E43300" stroke="none" />
    <path d="M36.2755 0C37.7482 0 38.9496 0.484448 39.8798 1.45334C40.8099 2.42224 41.275 3.68181 41.275 5.23204L41.275 36.8568C41.275 38.3295 40.8487 39.4922 39.996 40.3448C39.1434 41.1975 38.0195 41.6238 36.6243 41.6238C35.2678 41.6238 34.1536 41.1975 33.2816 40.3448C32.4096 39.4922 31.9736 38.3295 31.9736 36.8568L31.9736 19.7655L25.3463 31.9736C24.6875 33.2138 23.9899 34.0955 23.2535 34.6187C22.5172 35.1419 21.6451 35.4035 20.6375 35.4035C19.6298 35.4035 18.7578 35.1419 18.0215 34.6187C17.2851 34.0955 16.5875 33.2138 15.9287 31.9736L9.35954 20.1143L9.35954 36.8568C9.35954 38.2908 8.92353 39.4438 8.05153 40.3158C7.17952 41.1878 6.04591 41.6238 4.6507 41.6238C3.29425 41.6238 2.18002 41.1975 1.30801 40.3448C0.436003 39.4922 -3.85005e-07 38.3295 0 36.8568L0 5.23204C0 3.68181 0.474759 2.42224 1.42428 1.45334C2.3738 0.484448 3.58492 0 5.05764 0C6.10405 0 7.05357 0.300358 7.90619 0.901074C8.75882 1.50179 9.47581 2.36411 10.0571 3.48803L20.7538 23.6023L31.3922 3.48803C32.5937 1.16268 34.2214 1.54002e-06 36.2755 0L36.2755 0Z" transform="translate(80.311584 24.254013)" id="M" fill="#0F52C3" fill-rule="evenodd" stroke="none" />
    <path d="M21.9746 2.90669C22.4009 1.93779 22.9822 1.22081 23.7186 0.75574C24.4549 0.290669 25.2688 0.0581326 26.1602 0.0581326C27.4391 0.0581326 28.5824 0.484447 29.5901 1.33708C30.5977 2.18971 31.1016 3.21674 31.1016 4.41816C31.1016 5.07702 30.9466 5.71649 30.6365 6.33658L15.2311 37.2056C14.766 38.1745 14.1556 38.8915 13.3998 39.3566C12.6441 39.8216 11.8205 40.0542 10.9292 40.0542C9.65021 40.0542 8.5166 39.6375 7.52833 38.8043C6.54005 37.971 6.04592 36.9537 6.04592 35.7523C6.04592 35.0934 6.22031 34.4152 6.56912 33.7176L10.3478 26.1021L0.46507 6.33658C0.155024 5.63897 0 5.01888 0 4.4763C0 3.23612 0.542583 2.18002 1.62775 1.30801C2.71291 0.436004 3.93372 3.08004e-06 5.29017 0C6.22031 0 7.08263 0.242223 7.87713 0.726673C8.67162 1.21112 9.28203 1.93779 9.70834 2.90669L15.8705 16.2775L21.9746 2.90669Z" transform="translate(125.59781 36.345856)" id="y" fill="#0F52C3" fill-rule="evenodd" stroke="none" />
  </g>
</svg>